<svg xmlns="http://www.w3.org/2000/svg" viewBox="0 0 357.2 84.9"><defs><style>.a{fill:#231815;}</style></defs><path class="a" d="M48.4,63.6H20.1L49.3,21.5l5.6,12.8H66.3L51.5,0,0,74.1H39.2a3.7,3.7,0,0,0,3-1.6Z"/><path class="a" d="M81.4,18.9,85,27.2a3.8,3.8,0,0,0,3.4,2.2h13l-23.8,34-9-20.8h-25L36.5,52.8h25L75.4,84.9l46.1-66Z"/><path class="a" d="M156.5,21.8,139.3,63h9.1l3.6-9.7h17.7l3.8,9.7H183L165.6,21.8Zm-1.7,24.1,5.9-15.8,6.2,15.8Z"/><polygon class="a" points="208.6 52.5 196.4 21.8 186.7 21.8 204.4 63 213.3 63 230.3 21.8 221.2 21.8 208.6 52.5"/><rect class="a" x="246.2" y="21.8" width="9" height="41.19"/><polygon class="a" points="321.9 21.9 321.9 29.1 335.1 29.1 335.1 63 343.9 63 343.9 29.1 357.2 29.1 357.2 21.9 321.9 21.9"/><path class="a" d="M274.4,34.9V63h22.5A13.1,13.1,0,0,0,310,49.9v-28H287.5A13.1,13.1,0,0,0,274.4,34.9ZM301,29.1v20a6.7,6.7,0,0,1-6.7,6.7H283.4v-20a6.7,6.7,0,0,1,6.7-6.7Z"/><path class="a" d="M160.1,74.7v1.1h0a2.5,2.5,0,0,1,2.1-1.3,1.6,1.6,0,0,1,1.2.4,2,2,0,0,1,.8,1.1h0a2.6,2.6,0,0,1,2.3-1.5,2.1,2.1,0,0,1,1.7.7,3.8,3.8,0,0,1,.6,2.4v5.1h-1.2V77.9a4.1,4.1,0,0,0-.3-1.9c-.2-.4-.6-.5-1.2-.5a1.7,1.7,0,0,0-1.1.6,1.6,1.6,0,0,0-.5,1.2v5.4h-1.2V77.9A4.1,4.1,0,0,0,163,76a1.2,1.2,0,0,0-1.2-.5,1.5,1.5,0,0,0-1.1.6,1.7,1.7,0,0,0-.6,1.2v5.4h-1.2v-8Z"/><path class="a" d="M177.4,77.6v-.4a1.6,1.6,0,0,0-.5-1.3c-.2-.3-.8-.4-1.5-.4a7.9,7.9,0,0,0-2.8.6V75a9.7,9.7,0,0,1,2.8-.5,3.4,3.4,0,0,1,2.5.7,3.3,3.3,0,0,1,.7,2.3v5.2h-1.2V81.3h0a3.1,3.1,0,0,1-2.8,1.5,2.8,2.8,0,0,1-1.8-.6,2.6,2.6,0,0,1-.6-1.8,2.3,2.3,0,0,1,1-2,5.6,5.6,0,0,1,3.2-.8Zm0,.9h-1a5,5,0,0,0-2.3.4,1.6,1.6,0,0,0-.7,1.4,1.6,1.6,0,0,0,.4,1.2,1.5,1.5,0,0,0,1,.4,2.3,2.3,0,0,0,1.8-.8,2.6,2.6,0,0,0,.8-1.9Z"/><path class="a" d="M183.6,71.1v7.2h0l3.9-3.6H189l-4.3,3.8,4.3,4.2h-1.5l-3.9-3.9h0v3.9h-1.2V71.1Z"/><path class="a" d="M192.4,79c.1,2,1,3,2.8,3a5.6,5.6,0,0,0,2.3-.6v1.1l-2.4.3a3.8,3.8,0,0,1-2.9-1,4.1,4.1,0,0,1-1-3.1,4.4,4.4,0,0,1,1-3.2,3.6,3.6,0,0,1,2.6-1c2.1,0,3.2,1.4,3.2,4.1V79Zm0-.9h4.4c0-1.8-.7-2.7-2-2.7S192.5,76.3,192.4,78.1Z"/><path class="a" d="M206.4,82.7l3.9-11.3h1.4l4,11.3h-1.3l-1.1-3.3h-4.6l-1,3.3Zm2.7-4.3H213l-2-5.8h0Z"/><path class="a" d="M227.7,75.5c-1.6,0-2.5,1.1-2.5,3.2a3.8,3.8,0,0,0,.7,2.4,2.5,2.5,0,0,0,2,.8,4.8,4.8,0,0,0,2-.4v1l-2.1.3a3.6,3.6,0,0,1-2.8-1,5.3,5.3,0,0,1,0-6.2,3.3,3.3,0,0,1,2.6-1.1,7.8,7.8,0,0,1,2.2.3v1A6.6,6.6,0,0,0,227.7,75.5Z"/><path class="a" d="M234.1,75.6a3.7,3.7,0,0,1,2.7-1.1,3.4,3.4,0,0,1,2.7,1.1,4.3,4.3,0,0,1,1,3.1,4.5,4.5,0,0,1-1,3.1,3.3,3.3,0,0,1-2.7,1,3.6,3.6,0,0,1-2.7-1,5,5,0,0,1-1-3.1A4.8,4.8,0,0,1,234.1,75.6Zm.2,3.1c0,2.1.9,3.2,2.5,3.2s2.5-1.1,2.5-3.2-.8-3.2-2.5-3.2S234.3,76.5,234.3,78.7Z"/><path class="a" d="M244.9,74.7v1.1h.1a2.5,2.5,0,0,1,2.1-1.3,1.6,1.6,0,0,1,1.2.4A1.9,1.9,0,0,1,249,76h.1a2.4,2.4,0,0,1,2.2-1.5,2.5,2.5,0,0,1,1.8.7,3.8,3.8,0,0,1,.6,2.4v5.1h-1.2V77.9a4.1,4.1,0,0,0-.3-1.9,1.2,1.2,0,0,0-1.2-.5,1.4,1.4,0,0,0-1.1.6,1.7,1.7,0,0,0-.6,1.2v5.4h-1.1V77.9a3.8,3.8,0,0,0-.4-1.9c-.2-.4-.6-.5-1.1-.5a1.7,1.7,0,0,0-1.2.6,2.1,2.1,0,0,0-.5,1.2v5.4h-1.2v-8Z"/><path class="a" d="M256.8,75h1.9v-.9a2.9,2.9,0,0,1,.6-2.1,2.4,2.4,0,0,1,2-.7l1.4.2v1a2.7,2.7,0,0,0-1.2-.3c-.6,0-1,.1-1.2.4a2.7,2.7,0,0,0-.4,1.5V75h2.7v.9h-2.7v6.8h-1.2V75.9h-1.9Z"/><path class="a" d="M266.3,75.6a3.5,3.5,0,0,1,2.7-1.1,3.7,3.7,0,0,1,2.7,1.1,4.8,4.8,0,0,1,1,3.1,5,5,0,0,1-1,3.1,3.6,3.6,0,0,1-2.7,1,3.5,3.5,0,0,1-2.7-1,5,5,0,0,1-1-3.1A4.8,4.8,0,0,1,266.3,75.6Zm.2,3.1c0,2.1.9,3.2,2.5,3.2s2.5-1.1,2.5-3.2-.9-3.2-2.5-3.2S266.5,76.5,266.5,78.7Z"/><path class="a" d="M276,74.7h1.1v1.8h.1a2.9,2.9,0,0,1,1.4-1.3,3.3,3.3,0,0,1,2-.5h.3v1h-.3a3.7,3.7,0,0,0-2.5.8,3.2,3.2,0,0,0-.9,2.4v3.8H276Z"/><path class="a" d="M287,72.1V75h2.9v.9H287v4.2a2.6,2.6,0,0,0,.3,1.5,1.4,1.4,0,0,0,1.1.3,3,3,0,0,0,1.3-.2v1h-1.5a2.6,2.6,0,0,1-1.9-.5,3.6,3.6,0,0,1-.5-2.1V75.9h-1.7V75h1.7V72.1Z"/><path class="a" d="M299.4,74.7h6v.9l-4.6,6.1h4.6v.9h-6v-.9l4.6-6.2h-4.6Z"/><path class="a" d="M309.5,75.6a3.7,3.7,0,0,1,2.7-1.1,3.4,3.4,0,0,1,2.7,1.1,4.8,4.8,0,0,1,1,3.1,5,5,0,0,1-1,3.1,3.3,3.3,0,0,1-2.7,1,3.6,3.6,0,0,1-2.7-1,5,5,0,0,1-1-3.1A4.8,4.8,0,0,1,309.5,75.6Zm.2,3.1c0,2.1.9,3.2,2.5,3.2s2.5-1.1,2.5-3.2-.9-3.2-2.5-3.2S309.7,76.5,309.7,78.7Z"/><path class="a" d="M320.3,74.7v1.2h0a3.6,3.6,0,0,1,2.7-1.4,2.5,2.5,0,0,1,2,.8,4.3,4.3,0,0,1,.7,2.6v4.8h-1.2V78.1a3.7,3.7,0,0,0-.4-2.1,1.6,1.6,0,0,0-1.4-.5,2.1,2.1,0,0,0-1.6.7,2.1,2.1,0,0,0-.7,1.5v5h-1.2v-8Z"/><path class="a" d="M330.1,79c0,2,1,3,2.8,3a4.9,4.9,0,0,0,2.2-.6v1.1l-2.3.3a3.7,3.7,0,0,1-2.9-1,4.1,4.1,0,0,1-1-3.1,4.9,4.9,0,0,1,.9-3.2,3.8,3.8,0,0,1,2.6-1c2.2,0,3.3,1.4,3.3,4.1a.8.8,0,0,1-.1.4Zm0-.9h4.4q0-2.7-2.1-2.7C331,75.4,330.2,76.3,330.1,78.1Z"/></svg>